<?xml version='1.0' encoding='UTF-8'?>
<svg width="37mm" height="37mm" version="1.1" viewBox="0 0 37 37" xmlns="http://www.w3.org/2000/svg"><path d="M2,2H3V3H2zM3,2H4V3H3zM4,2H5V3H4zM5,2H6V3H5zM6,2H7V3H6zM7,2H8V3H7zM8,2H9V3H8zM11,2H12V3H11zM13,2H14V3H13zM16,2H17V3H16zM17,2H18V3H17zM18,2H19V3H18zM19,2H20V3H19zM20,2H21V3H20zM21,2H22V3H21zM23,2H24V3H23zM24,2H25V3H24zM26,2H27V3H26zM28,2H29V3H28zM29,2H30V3H29zM30,2H31V3H30zM31,2H32V3H31zM32,2H33V3H32zM33,2H34V3H33zM34,2H35V3H34zM2,3H3V4H2zM8,3H9V4H8zM11,3H12V4H11zM12,3H13V4H12zM13,3H14V4H13zM14,3H15V4H14zM16,3H17V4H16zM17,3H18V4H17zM20,3H21V4H20zM21,3H22V4H21zM22,3H23V4H22zM23,3H24V4H23zM26,3H27V4H26zM28,3H29V4H28zM34,3H35V4H34zM2,4H3V5H2zM4,4H5V5H4zM5,4H6V5H5zM6,4H7V5H6zM8,4H9V5H8zM10,4H11V5H10zM11,4H12V5H11zM12,4H13V5H12zM17,4H18V5H17zM21,4H22V5H21zM23,4H24V5H23zM25,4H26V5H25zM26,4H27V5H26zM28,4H29V5H28zM30,4H31V5H30zM31,4H32V5H31zM32,4H33V5H32zM34,4H35V5H34zM2,5H3V6H2zM4,5H5V6H4zM5,5H6V6H5zM6,5H7V6H6zM8,5H9V6H8zM10,5H11V6H10zM11,5H12V6H11zM14,5H15V6H14zM15,5H16V6H15zM16,5H17V6H16zM17,5H18V6H17zM23,5H24V6H23zM25,5H26V6H25zM26,5H27V6H26zM28,5H29V6H28zM30,5H31V6H30zM31,5H32V6H31zM32,5H33V6H32zM34,5H35V6H34zM2,6H3V7H2zM4,6H5V7H4zM5,6H6V7H5zM6,6H7V7H6zM8,6H9V7H8zM12,6H13V7H12zM13,6H14V7H13zM18,6H19V7H18zM20,6H21V7H20zM21,6H22V7H21zM23,6H24V7H23zM25,6H26V7H25zM28,6H29V7H28zM30,6H31V7H30zM31,6H32V7H31zM32,6H33V7H32zM34,6H35V7H34zM2,7H3V8H2zM8,7H9V8H8zM11,7H12V8H11zM12,7H13V8H12zM15,7H16V8H15zM16,7H17V8H16zM19,7H20V8H19zM22,7H23V8H22zM24,7H25V8H24zM26,7H27V8H26zM28,7H29V8H28zM34,7H35V8H34zM2,8H3V9H2zM3,8H4V9H3zM4,8H5V9H4zM5,8H6V9H5zM6,8H7V9H6zM7,8H8V9H7zM8,8H9V9H8zM10,8H11V9H10zM12,8H13V9H12zM14,8H15V9H14zM16,8H17V9H16zM18,8H19V9H18zM20,8H21V9H20zM22,8H23V9H22zM24,8H25V9H24zM26,8H27V9H26zM28,8H29V9H28zM29,8H30V9H29zM30,8H31V9H30zM31,8H32V9H31zM32,8H33V9H32zM33,8H34V9H33zM34,8H35V9H34zM12,9H13V10H12zM16,9H17V10H16zM17,9H18V10H17zM19,9H20V10H19zM20,9H21V10H20zM21,9H22V10H21zM24,9H25V10H24zM25,9H26V10H25zM5,10H6V11H5zM6,10H7V11H6zM8,10H9V11H8zM9,10H10V11H9zM12,10H13V11H12zM13,10H14V11H13zM16,10H17V11H16zM17,10H18V11H17zM20,10H21V11H20zM22,10H23V11H22zM25,10H26V11H25zM26,10H27V11H26zM31,10H32V11H31zM32,10H33V11H32zM2,11H3V12H2zM4,11H5V12H4zM5,11H6V12H5zM6,11H7V12H6zM7,11H8V12H7zM10,11H11V12H10zM13,11H14V12H13zM15,11H16V12H15zM16,11H17V12H16zM18,11H19V12H18zM19,11H20V12H19zM21,11H22V12H21zM22,11H23V12H22zM24,11H25V12H24zM25,11H26V12H25zM27,11H28V12H27zM29,11H30V12H29zM30,11H31V12H30zM32,11H33V12H32zM3,12H4V13H3zM8,12H9V13H8zM10,12H11V13H10zM12,12H13V13H12zM15,12H16V13H15zM18,12H19V13H18zM20,12H21V13H20zM22,12H23V13H22zM23,12H24V13H23zM25,12H26V13H25zM26,12H27V13H26zM27,12H28V13H27zM29,12H30V13H29zM31,12H32V13H31zM32,12H33V13H32zM33,12H34V13H33zM34,12H35V13H34zM2,13H3V14H2zM3,13H4V14H3zM4,13H5V14H4zM5,13H6V14H5zM7,13H8V14H7zM9,13H10V14H9zM10,13H11V14H10zM11,13H12V14H11zM14,13H15V14H14zM15,13H16V14H15zM19,13H20V14H19zM20,13H21V14H20zM21,13H22V14H21zM22,13H23V14H22zM25,13H26V14H25zM26,13H27V14H26zM27,13H28V14H27zM28,13H29V14H28zM29,13H30V14H29zM30,13H31V14H30zM32,13H33V14H32zM33,13H34V14H33zM34,13H35V14H34zM2,14H3V15H2zM4,14H5V15H4zM6,14H7V15H6zM8,14H9V15H8zM9,14H10V15H9zM10,14H11V15H10zM11,14H12V15H11zM12,14H13V15H12zM14,14H15V15H14zM15,14H16V15H15zM23,14H24V15H23zM24,14H25V15H24zM25,14H26V15H25zM28,14H29V15H28zM29,14H30V15H29zM33,14H34V15H33zM34,14H35V15H34zM2,15H3V16H2zM4,15H5V16H4zM6,15H7V16H6zM7,15H8V16H7zM9,15H10V16H9zM12,15H13V16H12zM13,15H14V16H13zM14,15H15V16H14zM17,15H18V16H17zM21,15H22V16H21zM23,15H24V16H23zM24,15H25V16H24zM25,15H26V16H25zM27,15H28V16H27zM29,15H30V16H29zM31,15H32V16H31zM33,15H34V16H33zM2,16H3V17H2zM3,16H4V17H3zM4,16H5V17H4zM8,16H9V17H8zM9,16H10V17H9zM10,16H11V17H10zM12,16H13V17H12zM14,16H15V17H14zM16,16H17V17H16zM18,16H19V17H18zM20,16H21V17H20zM22,16H23V17H22zM28,16H29V17H28zM29,16H30V17H29zM31,16H32V17H31zM2,17H3V18H2zM3,17H4V18H3zM5,17H6V18H5zM7,17H8V18H7zM15,17H16V18H15zM17,17H18V18H17zM18,17H19V18H18zM19,17H20V18H19zM21,17H22V18H21zM25,17H26V18H25zM27,17H28V18H27zM29,17H30V18H29zM31,17H32V18H31zM32,17H33V18H32zM33,17H34V18H33zM4,18H5V19H4zM5,18H6V19H5zM6,18H7V19H6zM7,18H8V19H7zM8,18H9V19H8zM14,18H15V19H14zM16,18H17V19H16zM19,18H20V19H19zM22,18H23V19H22zM27,18H28V19H27zM28,18H29V19H28zM29,18H30V19H29zM30,18H31V19H30zM31,18H32V19H31zM33,18H34V19H33zM10,19H11V20H10zM12,19H13V20H12zM13,19H14V20H13zM14,19H15V20H14zM15,19H16V20H15zM16,19H17V20H16zM17,19H18V20H17zM21,19H22V20H21zM22,19H23V20H22zM24,19H25V20H24zM26,19H27V20H26zM28,19H29V20H28zM29,19H30V20H29zM30,19H31V20H30zM31,19H32V20H31zM34,19H35V20H34zM2,20H3V21H2zM4,20H5V21H4zM5,20H6V21H5zM6,20H7V21H6zM7,20H8V21H7zM8,20H9V21H8zM9,20H10V21H9zM10,20H11V21H10zM11,20H12V21H11zM14,20H15V21H14zM17,20H18V21H17zM21,20H22V21H21zM24,20H25V21H24zM25,20H26V21H25zM27,20H28V21H27zM28,20H29V21H28zM31,20H32V21H31zM32,20H33V21H32zM34,20H35V21H34zM5,21H6V22H5zM6,21H7V22H6zM7,21H8V22H7zM13,21H14V22H13zM14,21H15V22H14zM20,21H21V22H20zM24,21H25V22H24zM25,21H26V22H25zM26,21H27V22H26zM31,21H32V22H31zM32,21H33V22H32zM34,21H35V22H34zM2,22H3V23H2zM8,22H9V23H8zM11,22H12V23H11zM15,22H16V23H15zM16,22H17V23H16zM17,22H18V23H17zM18,22H19V23H18zM19,22H20V23H19zM20,22H21V23H20zM22,22H23V23H22zM26,22H27V23H26zM29,22H30V23H29zM31,22H32V23H31zM33,22H34V23H33zM34,22H35V23H34zM2,23H3V24H2zM4,23H5V24H4zM5,23H6V24H5zM6,23H7V24H6zM7,23H8V24H7zM9,23H10V24H9zM10,23H11V24H10zM11,23H12V24H11zM12,23H13V24H12zM16,23H17V24H16zM17,23H18V24H17zM23,23H24V24H23zM24,23H25V24H24zM26,23H27V24H26zM29,23H30V24H29zM30,23H31V24H30zM31,23H32V24H31zM33,23H34V24H33zM2,24H3V25H2zM5,24H6V25H5zM8,24H9V25H8zM9,24H10V25H9zM13,24H14V25H13zM14,24H15V25H14zM15,24H16V25H15zM16,24H17V25H16zM17,24H18V25H17zM19,24H20V25H19zM20,24H21V25H20zM21,24H22V25H21zM24,24H25V25H24zM25,24H26V25H25zM28,24H29V25H28zM29,24H30V25H29zM33,24H34V25H33zM34,24H35V25H34zM2,25H3V26H2zM4,25H5V26H4zM5,25H6V26H5zM11,25H12V26H11zM16,25H17V26H16zM17,25H18V26H17zM18,25H19V26H18zM20,25H21V26H20zM22,25H23V26H22zM24,25H25V26H24zM25,25H26V26H25zM26,25H27V26H26zM29,25H30V26H29zM32,25H33V26H32zM33,25H34V26H33zM34,25H35V26H34zM2,26H3V27H2zM3,26H4V27H3zM4,26H5V27H4zM6,26H7V27H6zM7,26H8V27H7zM8,26H9V27H8zM9,26H10V27H9zM10,26H11V27H10zM11,26H12V27H11zM12,26H13V27H12zM13,26H14V27H13zM16,26H17V27H16zM17,26H18V27H17zM21,26H22V27H21zM22,26H23V27H22zM25,26H26V27H25zM26,26H27V27H26zM27,26H28V27H27zM28,26H29V27H28zM29,26H30V27H29zM30,26H31V27H30zM31,26H32V27H31zM10,27H11V28H10zM13,27H14V28H13zM16,27H17V28H16zM17,27H18V28H17zM19,27H20V28H19zM20,27H21V28H20zM22,27H23V28H22zM23,27H24V28H23zM25,27H26V28H25zM26,27H27V28H26zM30,27H31V28H30zM33,27H34V28H33zM2,28H3V29H2zM3,28H4V29H3zM4,28H5V29H4zM5,28H6V29H5zM6,28H7V29H6zM7,28H8V29H7zM8,28H9V29H8zM10,28H11V29H10zM14,28H15V29H14zM15,28H16V29H15zM17,28H18V29H17zM18,28H19V29H18zM22,28H23V29H22zM25,28H26V29H25zM26,28H27V29H26zM28,28H29V29H28zM30,28H31V29H30zM31,28H32V29H31zM32,28H33V29H32zM2,29H3V30H2zM8,29H9V30H8zM13,29H14V30H13zM14,29H15V30H14zM17,29H18V30H17zM18,29H19V30H18zM19,29H20V30H19zM20,29H21V30H20zM21,29H22V30H21zM22,29H23V30H22zM23,29H24V30H23zM24,29H25V30H24zM25,29H26V30H25zM26,29H27V30H26zM30,29H31V30H30zM31,29H32V30H31zM32,29H33V30H32zM33,29H34V30H33zM2,30H3V31H2zM4,30H5V31H4zM5,30H6V31H5zM6,30H7V31H6zM8,30H9V31H8zM10,30H11V31H10zM12,30H13V31H12zM13,30H14V31H13zM14,30H15V31H14zM16,30H17V31H16zM17,30H18V31H17zM18,30H19V31H18zM21,30H22V31H21zM22,30H23V31H22zM23,30H24V31H23zM24,30H25V31H24zM25,30H26V31H25zM26,30H27V31H26zM27,30H28V31H27zM28,30H29V31H28zM29,30H30V31H29zM30,30H31V31H30zM31,30H32V31H31zM33,30H34V31H33zM2,31H3V32H2zM4,31H5V32H4zM5,31H6V32H5zM6,31H7V32H6zM8,31H9V32H8zM10,31H11V32H10zM11,31H12V32H11zM12,31H13V32H12zM15,31H16V32H15zM16,31H17V32H16zM17,31H18V32H17zM19,31H20V32H19zM21,31H22V32H21zM22,31H23V32H22zM23,31H24V32H23zM24,31H25V32H24zM26,31H27V32H26zM27,31H28V32H27zM29,31H30V32H29zM33,31H34V32H33zM2,32H3V33H2zM4,32H5V33H4zM5,32H6V33H5zM6,32H7V33H6zM8,32H9V33H8zM14,32H15V33H14zM15,32H16V33H15zM17,32H18V33H17zM20,32H21V33H20zM21,32H22V33H21zM23,32H24V33H23zM24,32H25V33H24zM30,32H31V33H30zM31,32H32V33H31zM33,32H34V33H33zM34,32H35V33H34zM2,33H3V34H2zM8,33H9V34H8zM13,33H14V34H13zM17,33H18V34H17zM19,33H20V34H19zM20,33H21V34H20zM21,33H22V34H21zM22,33H23V34H22zM23,33H24V34H23zM24,33H25V34H24zM32,33H33V34H32zM33,33H34V34H33zM34,33H35V34H34zM2,34H3V35H2zM3,34H4V35H3zM4,34H5V35H4zM5,34H6V35H5zM6,34H7V35H6zM7,34H8V35H7zM8,34H9V35H8zM14,34H15V35H14zM15,34H16V35H15zM16,34H17V35H16zM17,34H18V35H17zM18,34H19V35H18zM19,34H20V35H19zM22,34H23V35H22zM24,34H25V35H24zM25,34H26V35H25zM26,34H27V35H26zM27,34H28V35H27zM28,34H29V35H28zM30,34H31V35H30z" id="qr-path" fill="#000000" fill-opacity="1" fill-rule="nonzero" stroke="none" /></svg>